<?xml version="1.0" standalone="no"?><!DOCTYPE svg PUBLIC "-//W3C//DTD SVG 1.1//EN" "http://www.w3.org/Graphics/SVG/1.1/DTD/svg11.dtd"><svg t="1718349998541" class="icon" viewBox="0 0 1024 1024" version="1.1" xmlns="http://www.w3.org/2000/svg" p-id="19919" xmlns:xlink="http://www.w3.org/1999/xlink" width="200" height="200"><path d="M548.0192 550.7584l46.976-18.8416v-130.9696c0-36.6848 22.272-69.6576 56.2944-83.2768l26.752-10.7264a89.6 89.6 0 0 1 54.784-66.944l117.1712-28.7488a89.472 89.472 0 0 1 116.3776 49.9712 89.7536 89.7536 0 0 1-49.8688 116.5824l-117.1712 28.7744a89.1648 89.1648 0 0 1-73.1648-2.9952l-23.7312 9.5232v130.9696c0 36.6592-22.272 69.632-56.2944 83.2768l-23.7568 9.5232 75.5712 87.5008c19.7632 23.0912 8.0384 52.48-26.2144 65.6128-8.192 3.1232-17.2288 5.12-26.624 5.888L132.0192 837.0176c-39.2192 3.072-75.136-15.36-80.2304-41.1136-2.432-12.3136 2.6624-24.7296 14.1312-34.56l314.112-271.7952c23.9872-21.0432 68.9408-25.344 100.3776-9.5488 7.5264 3.7888 13.824 8.5248 18.56 13.952l49.0496 56.832z" fill="#1296db" p-id="19920"></path></svg>